<svg xmlns="http://www.w3.org/2000/svg" width="33.718" height="49.077" viewBox="0 0 33.718 49.077">
  <g id="Icon_feather-figma" data-name="Icon feather-figma" transform="translate(1.5 1.5)">
    <path id="Path_40" data-name="Path 40" d="M7.5,10.679A7.679,7.679,0,0,1,15.179,3h7.679V18.359H15.179A7.679,7.679,0,0,1,7.5,10.679Z" transform="translate(-7.5 -3)" fill="none" stroke="#fff" stroke-linecap="round" stroke-linejoin="round" stroke-width="3"/>
    <path id="Path_41" data-name="Path 41" d="M18,3h7.679a7.679,7.679,0,1,1,0,15.359H18Z" transform="translate(-2.641 -3)" fill="none" stroke="#fff" stroke-linecap="round" stroke-linejoin="round" stroke-width="3"/>
    <path id="Path_42" data-name="Path 42" d="M18,21.179a7.679,7.679,0,1,1,7.679,7.679A7.679,7.679,0,0,1,18,21.179Z" transform="translate(-2.641 1.859)" fill="none" stroke="#fff" stroke-linecap="round" stroke-linejoin="round" stroke-width="3"/>
    <path id="Path_43" data-name="Path 43" d="M7.5,31.679A7.679,7.679,0,0,1,15.179,24h7.679v7.679a7.679,7.679,0,0,1-15.359,0Z" transform="translate(-7.5 6.718)" fill="none" stroke="#fff" stroke-linecap="round" stroke-linejoin="round" stroke-width="3"/>
    <path id="Path_44" data-name="Path 44" d="M7.5,21.179A7.679,7.679,0,0,1,15.179,13.5h7.679V28.859H15.179A7.679,7.679,0,0,1,7.5,21.179Z" transform="translate(-7.5 1.859)" fill="none" stroke="#fff" stroke-linecap="round" stroke-linejoin="round" stroke-width="3"/>
  </g>
</svg>
