<svg id="Layer_1" data-name="Layer 1" xmlns="http://www.w3.org/2000/svg" viewBox="0 0 132.96 192.37"><path d="M221.25,382.92c-21.08-17.79-18.12-45.21.1-59.82-7.21-5.93-12.11-13.25-14.13-22.47-4.74-21.66,12.46-43.6,34.69-43.78,20.24-.17,40.48-.06,60.72,0A36.47,36.47,0,0,1,337,280.22a36.84,36.84,0,0,1-9.71,40.47c-.86.78-1.74,1.52-2.62,2.29,20.07,17.16,16.53,39.76,7.71,51.65-11.85,16-29.48,18.75-52.6,7.7,0,10.19-.07,20.05,0,29.91a35,35,0,0,1-7.88,23c-13.82,17-38.67,18.6-54.12,3.53-15.61-15.22-14.88-39.76,1.61-54.25C220,384,220.61,383.46,221.25,382.92ZM280,315.75c9.21,0,18,.77,26.63-.19,11-1.21,18.59-10.66,18.81-21.57s-6.94-21.14-17.69-22.59c-9-1.22-18.35-.25-27.75-.25ZM325.4,353a22.65,22.65,0,0,0-22.66-22.81,22.76,22.76,0,1,0-.09,45.52A22.64,22.64,0,0,0,325.4,353Z" transform="translate(-206.43 -256.76)"/></svg>