<svg xmlns="http://www.w3.org/2000/svg" width="141.61" height="138.313" viewBox="0 0 141.61 138.313">
  <g id="Group_137" data-name="Group 137" transform="translate(96.123 -265.658)">
    <path id="Path_47" data-name="Path 47" d="M45.487,403.971H-96.123V265.658H45.487Zm-134.1-6.9H38.345V272.973H-88.608Z"/>
    <path id="Path_48" data-name="Path 48" d="M-47.951,323.339c1.194-2.633,2.323-5.173,3.494-7.693q4.611-9.921,9.25-19.828a1.659,1.659,0,0,1,1.683-1.069c3.475.031,6.95.005,10.425.017,1.142,0,1.319.281.81,1.262q-5.373,10.348-10.763,20.688c-2.409,4.631-4.827,9.257-7.2,13.908a1.626,1.626,0,0,0,.04,1.284q8.424,16.437,16.9,32.844c.73,1.417,1.462,2.833,2.16,4.266.443.908.23,1.248-.781,1.252-3.874.013-7.748-.012-11.623.017a1.825,1.825,0,0,1-1.778-1.307q-6.6-13.872-13.226-27.731c-.065-.137-.151-.263-.339-.587-1.051,2.292-2.029,4.434-3.015,6.573q-4.4,9.554-8.81,19.105c-.417.9-.862,1.8-1.284,2.7a1.93,1.93,0,0,1-1.983,1.214c-3.474-.045-6.949-.013-10.424-.02-1.384,0-1.5-.208-.864-1.43l15.449-29.7c1.011-1.944,2.063-3.869,3-5.847a2.123,2.123,0,0,0,.03-1.635q-8-15.926-16.079-31.808c-.63-1.244-1.277-2.48-1.87-3.742-.463-.983-.256-1.3.848-1.3,3.794-.013,7.588.006,11.383-.013a1.477,1.477,0,0,1,1.539,1.005q6.194,13.27,12.463,26.506C-48.357,322.588-48.181,322.9-47.951,323.339Z"/>
    <path id="Path_49" data-name="Path 49" d="M14.457,313.4v-1.085c0-5.35.022-10.7-.019-16.051-.008-1.079.318-1.489,1.437-1.469,3.273.057,6.549.069,9.822-.006,1.188-.027,1.465.386,1.464,1.511q-.045,31.383-.012,62.768c0,2.152.108,4.307.247,6.456a1.339,1.339,0,0,1-.866,1.587c-8.8,3.747-17.793,5.291-27.134,2.253a20.869,20.869,0,0,1-13.228-11.836c-4.058-9.359-4.318-18.92-.264-28.349,3.66-8.513,10.32-13.515,19.391-15.138A83.121,83.121,0,0,1,14.457,313.4Zm-.082,28.587c0-5.43-.021-10.86.021-16.289a1.206,1.206,0,0,0-1.149-1.43,13.939,13.939,0,0,0-16.53,10.463,29.714,29.714,0,0,0,0,15.027c2.176,8.488,9.183,11.41,16.5,9.825.919-.2,1.187-.625,1.18-1.546C14.354,352.685,14.375,347.335,14.375,341.985Z"/>
    <path id="Path_50" data-name="Path 50" d="M14.375,341.985c0,5.35-.021,10.7.021,16.05.007.921-.261,1.347-1.18,1.546-7.32,1.585-14.327-1.337-16.5-9.825a29.714,29.714,0,0,1,0-15.027,13.939,13.939,0,0,1,16.53-10.463A1.206,1.206,0,0,1,14.4,325.7C14.354,331.125,14.375,336.555,14.375,341.985Z" fill="#fff"/>
  </g>
</svg>
