<svg xmlns="http://www.w3.org/2000/svg" width="28.05" height="28.05" viewBox="0 0 28.05 28.05">
  <path id="Icon_awesome-download" data-name="Icon awesome-download" d="M11.834,0h4.383a1.312,1.312,0,0,1,1.315,1.315v9.2h4.8a1.094,1.094,0,0,1,.772,1.868l-8.333,8.338a1.061,1.061,0,0,1-1.5,0L4.936,12.387a1.094,1.094,0,0,1,.772-1.868h4.81v-9.2A1.312,1.312,0,0,1,11.834,0ZM28.05,20.6v6.136a1.312,1.312,0,0,1-1.315,1.315H1.315A1.312,1.312,0,0,1,0,26.735V20.6a1.312,1.312,0,0,1,1.315-1.315H9.352l2.684,2.684a2.807,2.807,0,0,0,3.977,0L18.7,19.284h8.037A1.312,1.312,0,0,1,28.05,20.6ZM21.256,25.42a1.1,1.1,0,1,0-1.1,1.1A1.1,1.1,0,0,0,21.256,25.42Zm3.506,0a1.1,1.1,0,1,0-1.1,1.1A1.1,1.1,0,0,0,24.763,25.42Z"/>
</svg>
