<svg xmlns="http://www.w3.org/2000/svg" width="52.182" height="52.182" viewBox="0 0 52.182 52.182">
  <path id="Icon_awesome-arrow-alt-circle-down" data-name="Icon awesome-arrow-alt-circle-down" d="M52.745,26.654A26.091,26.091,0,1,1,26.654.563,26.087,26.087,0,0,1,52.745,26.654Zm-30.72-12.2v12.2H14.565a1.263,1.263,0,0,0-.894,2.157L25.759,40.835a1.251,1.251,0,0,0,1.778,0L39.625,28.81a1.262,1.262,0,0,0-.894-2.157H31.283V14.45a1.266,1.266,0,0,0-1.262-1.262H23.287A1.266,1.266,0,0,0,22.025,14.45Z" transform="translate(-0.563 -0.563)" fill="#fff"/>
</svg>
