<svg id="Layer_1" data-name="Layer 1" xmlns="http://www.w3.org/2000/svg" viewBox="0 0 114.99 114.99"><rect width="114.99" height="114.99"/><path d="M137.74,155.54c-3.8,0-7.46,0-11.12,0-.26,0-.65-.42-.75-.72-1.3-3.94-2.55-7.89-3.82-11.83-.45-1.39-.54-3.24-1.49-4s-2.69-.32-4.09-.33c-4.52,0-9,0-13.56,0a1.23,1.23,0,0,0-1.45,1c-1.4,4.75-2.91,9.48-4.27,14.24-.35,1.25-.82,1.79-2.21,1.72-2.72-.13-5.46,0-8.18,0H85.34l19.14-59.72c4.5,0,8.94,0,13.37,0,.28,0,.71.47.82.8q3.22,9.78,6.39,19.59,3,9.27,6,18.55l6.36,19.59C137.55,154.71,137.62,155.06,137.74,155.54Zm-19.07-25.25c-2.6-8.56-5.16-17-7.61-25.1-2.37,8.1-4.85,16.57-7.34,25.1Z" transform="translate(-62.6 -68.69)" fill="#fff"/><path d="M153,155.47H142.13v-43H153Z" transform="translate(-62.6 -68.69)" fill="#fff"/><path d="M153.62,100.38c0,3.41-2.51,5.82-6.14,5.84a5.77,5.77,0,0,1-6.11-5.76,6,6,0,0,1,6.1-6.09A5.88,5.88,0,0,1,153.62,100.38Z" transform="translate(-62.6 -68.69)" fill="#fff"/></svg>