<svg xmlns="http://www.w3.org/2000/svg" width="52.944" height="50.877" viewBox="0 0 52.944 50.877">
  <path id="Icon_simple-adobeillustrator" data-name="Icon simple-adobeillustrator" d="M0,.45V51.327H52.944V.45ZM2.206,2.624H50.738V49.153H2.206ZM18.365,29.259l-1.747,6.518c-.038.18-.11.222-.326.222H13.053c-.221,0-.254-.072-.221-.322L19.1,14.054a6.616,6.616,0,0,0,.216-1.811c0-.143.073-.217.183-.217H24.12c.146,0,.221.039.256.217L31.4,35.712c.038.18,0,.287-.183.287h-3.64c-.183,0-.291-.043-.326-.187l-1.82-6.555H18.358Zm6.15-3.533c-.618-2.4-2.074-7.671-2.621-10.219h-.038c-.472,2.544-1.637,6.849-2.548,10.219Zm9.927-12.084a2.257,2.257,0,0,1,4.513,0,2.1,2.1,0,0,1-2.294,2.224,2.059,2.059,0,0,1-2.228-2.224Zm.247,4.944c0-.174.073-.239.256-.239h3.463c.194,0,.265.072.265.252V35.764c0,.18-.035.252-.254.252H35c-.221,0-.293-.109-.293-.283V18.583Z" transform="translate(0 -0.45)" fill="#fff"/>
</svg>
