<svg xmlns="http://www.w3.org/2000/svg" width="50.976" height="48.986" viewBox="0 0 50.976 48.986">
  <path id="Icon_simple-adobeindesign" data-name="Icon simple-adobeindesign" d="M0,.45V49.436H50.976V.45ZM2.124,2.543H48.852v44.8H2.124ZM18.638,34.4c0,.209-.036.276-.28.276H15.1c-.212,0-.28-.1-.28-.276V11.926c0-.209.106-.276.28-.276h3.3c.174,0,.244.069.244.243V34.4ZM22.4,26.3c0-5.01,3.352-8.912,8.713-8.912.455,0,.7,0,1.121.031V11.859a.2.2,0,0,1,.212-.209H35.9c.178,0,.212.071.212.176V31.41a15.371,15.371,0,0,0,.106,2.1c0,.138-.042.174-.185.243A13.035,13.035,0,0,1,30.456,35c-4.7,0-8.065-2.868-8.065-8.7ZM32.232,20.8a3.189,3.189,0,0,0-1.262-.209c-2.729,0-4.645,2.072-4.645,5.527,0,3.94,1.95,5.527,4.4,5.527a4.165,4.165,0,0,0,1.508-.241V20.8Z" transform="translate(0 -0.45)" fill="#fff"/>
</svg>
