<svg xmlns="http://www.w3.org/2000/svg" width="51.292" height="51.292" viewBox="0 0 51.292 51.292">
  <path id="Icon_awesome-js" data-name="Icon awesome-js" d="M0,2.25V53.542H51.292V2.25Zm27.913,40c0,4.992-2.931,7.27-7.2,7.27a7.488,7.488,0,0,1-7.236-4.408l3.927-2.37c.756,1.34,1.443,2.473,3.1,2.473,1.58,0,2.588-.618,2.588-3.034V25.8h4.82Zm11.4,7.27c-4.477,0-7.373-2.13-8.782-4.923l3.927-2.267a5.26,5.26,0,0,0,4.751,2.931c1.992,0,3.274-1,3.274-2.381,0-1.649-1.305-2.233-3.515-3.206l-1.2-.515c-3.481-1.477-5.782-3.343-5.782-7.27,0-3.618,2.759-6.366,7.053-6.366a7.1,7.1,0,0,1,6.847,3.858l-3.755,2.4a3.278,3.278,0,0,0-3.1-2.061,2.092,2.092,0,0,0-2.3,2.061c0,1.443.893,2.026,2.965,2.931l1.2.515c4.1,1.752,6.4,3.549,6.4,7.579,0,4.328-3.412,6.709-7.98,6.709Z" transform="translate(0 -2.25)" fill="#fff"/>
</svg>
