<svg xmlns="http://www.w3.org/2000/svg" width="46.208" height="46.208" viewBox="0 0 46.208 46.208">
  <path id="Icon_awesome-pencil-ruler" data-name="Icon awesome-pencil-ruler" d="M9.879,22.024,22.024,9.881,18.042,5.9l-5.566,5.566a.715.715,0,0,1-1.012,0l-1.012-1.012a.715.715,0,0,1,0-1.012l5.566-5.566L12.983.839a2.862,2.862,0,0,0-4.049,0l-8.1,8.1a2.863,2.863,0,0,0,0,4.049l9.04,9.041ZM44.937,11.483a4.335,4.335,0,0,0,0-6.131L40.853,1.269a4.337,4.337,0,0,0-6.132,0L30.568,5.421,40.784,15.637ZM28.526,7.465l-26.8,26.8-1.693,9.7a1.916,1.916,0,0,0,2.219,2.216l9.7-1.7,26.8-26.8ZM45.369,33.224l-3.036-3.036-5.566,5.566a.715.715,0,0,1-1.012,0l-1.012-1.012a.716.716,0,0,1,0-1.012l5.566-5.566-3.984-3.984L24.18,36.325l9.044,9.043a2.862,2.862,0,0,0,4.049,0l8.1-8.1a2.862,2.862,0,0,0,0-4.049Z" transform="translate(0 0.001)" fill="#fff"/>
</svg>
