<svg xmlns="http://www.w3.org/2000/svg" width="52.944" height="50.877" viewBox="0 0 52.944 50.877">
  <path id="Icon_simple-adobephotoshop" data-name="Icon simple-adobephotoshop" d="M0,.45V51.327H52.944V.45ZM2.206,2.624H50.738V49.153H2.206Zm10.589,9.741c0-.146.309-.252.494-.252,1.421-.072,3.5-.109,5.687-.109,6.115,0,8.493,3.3,8.493,7.536,0,5.523-4.063,7.892-9.049,7.892-.838,0-1.125-.037-1.71-.037v8.353c0,.18-.073.252-.254.252H13.051c-.183,0-.254-.065-.254-.246V12.365Zm3.916,11.55c.507.035.909.035,1.787.035,2.581,0,5.008-.9,5.008-4.34,0-2.761-1.734-4.161-4.681-4.161-.874,0-1.71.035-2.111.072v8.4ZM35.7,21.331c-1.747,0-2.33.861-2.33,1.578,0,.789.4,1.326,2.729,2.511,3.459,1.652,4.549,3.229,4.549,5.56,0,3.479-2.691,5.349-6.331,5.349a9.756,9.756,0,0,1-4.522-.935c-.143-.072-.176-.178-.176-.359v-3.19c0-.217.106-.289.251-.183a8.213,8.213,0,0,0,4.438,1.291c1.747,0,2.475-.718,2.475-1.687,0-.789-.507-1.472-2.729-2.62-3.133-1.478-4.443-2.979-4.443-5.494,0-2.8,2.219-5.131,6.078-5.131a10.417,10.417,0,0,1,3.958.609.472.472,0,0,1,.221.431V22.04c0,.18-.11.289-.331.217a7.992,7.992,0,0,0-3.845-.935Z" transform="translate(0 -0.45)" fill="#fff"/>
</svg>
