<svg id="Layer_1" data-name="Layer 1" xmlns="http://www.w3.org/2000/svg" viewBox="0 0 114.99 114.99"><rect width="114.99" height="114.99"/><path d="M242,130.66v20.45H229.81c0-18.93-.13-38.89-.13-58,2.6-.28,4.62.38,7.22.25,4-.19,8.08-.31,12.12-.24,4.39.16,8.6.7,12.48,2.77,6.14,3.28,8.95,8.58,8.93,15.43,0,5-1.44,9.61-5.13,13.22a21.67,21.67,0,0,1-11.77,5.6,37,37,0,0,1-10.5.48C242.74,130.64,242.45,130.66,242,130.66Zm.07-10.19a22.85,22.85,0,0,0,2.44.26,36.59,36.59,0,0,0,3.92-.14c4.65-.46,8.77-3,9-8.76.13-2.85-.69-5.37-3.19-7-3.72-1.87-7.79-1.82-12.18-1.57Z" transform="translate(-208.45 -68.69)" fill="#fff"/><path d="M271.05,149.11l2.26-8.93c0-.1.1-.19,0,0,3,.87,5.82,1.91,8.75,2.49a16.65,16.65,0,0,0,5.45-.12,2.89,2.89,0,0,0,2.57-2.72,3,3,0,0,0-1.74-3.24c-2.17-1-4.4-1.84-6.61-2.76a18.71,18.71,0,0,1-7.15-4.88c-3.71-4.27-3-10.92.4-14.87a16,16,0,0,1,10.2-5.35,28.71,28.71,0,0,1,15.08,1.79c.2.09.39.2.68.35l-2.25,8.75a61.12,61.12,0,0,0-6.07-1.8,18.5,18.5,0,0,0-5-.13,3.05,3.05,0,0,0-2.89,2.55c-.24,1.5.21,2.5,1.89,3.32,2,1,4.18,1.79,6.29,2.65a18.91,18.91,0,0,1,6.12,3.64,12.26,12.26,0,0,1-1.27,18.66A19.86,19.86,0,0,1,287.16,152,33.1,33.1,0,0,1,273,150C272.32,149.74,271.73,149.43,271.05,149.11Z" transform="translate(-208.45 -68.69)" fill="#fff"/><polygon points="21.23 29.46 37.03 29.46 37.62 24.46 21.23 24.39 21.23 29.46" fill="#fff"/></svg>