<svg id="Group_69" data-name="Group 69" xmlns="http://www.w3.org/2000/svg" width="51.814" height="50.057" viewBox="0 0 51.814 50.057">
  <g id="Rectangle_22" data-name="Rectangle 22" fill="#fff" stroke="#707070" stroke-width="1">
    <rect width="51.814" height="50.057" rx="7" stroke="none"/>
    <rect x="0.5" y="0.5" width="50.814" height="49.057" rx="6.5" fill="none"/>
  </g>
  <path id="Icon_awesome-react" data-name="Icon awesome-react" d="M34.028,14.064q-.659-.22-1.318-.415c.073-.3.138-.6.2-.9,1-4.85.342-8.747-1.88-10.033-2.14-1.229-5.631.049-9.162,3.125-.35.3-.692.618-1.017.936-.22-.212-.448-.423-.675-.627-3.7-3.287-7.413-4.671-9.634-3.377-2.132,1.237-2.766,4.906-1.871,9.5.09.456.187.9.3,1.359-.521.146-1.033.309-1.513.48C3.116,15.61,0,17.986,0,20.444c0,2.539,3.32,5.085,7.836,6.631.366.122.732.244,1.107.35-.122.488-.228.968-.325,1.465-.854,4.516-.187,8.1,1.945,9.325,2.2,1.269,5.891-.033,9.487-3.181.285-.252.57-.513.854-.789.358.35.732.683,1.107,1.009,3.483,2.994,6.924,4.207,9.048,2.978,2.2-1.269,2.913-5.118,1.985-9.8q-.11-.537-.244-1.1c.26-.073.513-.155.765-.236,4.695-1.554,8.1-4.068,8.1-6.648,0-2.465-3.206-4.858-7.632-6.379ZM23.019,7.156c3.027-2.636,5.85-3.67,7.136-2.929,1.375.789,1.9,3.979,1.042,8.169-.057.277-.114.545-.187.814a41.654,41.654,0,0,0-5.476-.862,41.111,41.111,0,0,0-3.466-4.321c.317-.3.627-.586.952-.871ZM13.6,24.667c.415.708.838,1.416,1.286,2.107a36.845,36.845,0,0,1-3.775-.61,38.01,38.01,0,0,1,1.326-3.621C12.815,23.259,13.2,23.967,13.6,24.667Zm-2.465-9.789c1.172-.26,2.417-.472,3.71-.635-.431.675-.854,1.367-1.253,2.067s-.789,1.4-1.155,2.116c-.513-1.212-.944-2.4-1.3-3.548Zm2.229,5.606c.537-1.123,1.123-2.221,1.741-3.3S16.4,15.049,17.1,14.016c1.221-.09,2.465-.138,3.735-.138s2.522.049,3.735.138q1.037,1.538,1.977,3.149t1.766,3.287q-.818,1.684-1.758,3.32c-.618,1.082-1.277,2.132-1.969,3.173-1.212.09-2.474.13-3.751.13s-2.514-.041-3.71-.114q-1.062-1.55-2-3.173c-.627-1.082-1.2-2.181-1.749-3.3ZM28.064,24.65c.415-.716.806-1.44,1.188-2.173a37.772,37.772,0,0,1,1.375,3.6,35.739,35.739,0,0,1-3.824.651C27.242,26.05,27.657,25.35,28.064,24.65Zm1.172-6.225c-.382-.716-.773-1.432-1.18-2.132s-.814-1.375-1.245-2.05a37.443,37.443,0,0,1,3.735.651,36.011,36.011,0,0,1-1.31,3.531ZM20.846,9.272a35.73,35.73,0,0,1,2.408,2.913c-1.611-.073-3.23-.073-4.841,0C19.211,11.135,20.033,10.159,20.846,9.272ZM11.408,4.284c1.367-.8,4.4.342,7.6,3.173.2.179.407.374.618.57a41.339,41.339,0,0,0-3.491,4.321,42.891,42.891,0,0,0-5.468.846c-.106-.415-.2-.838-.285-1.261-.765-3.938-.26-6.908,1.025-7.649ZM9.414,25.733c-.342-.1-.675-.2-1.009-.317a16.6,16.6,0,0,1-5.126-2.539,3.651,3.651,0,0,1-1.53-2.433c0-1.489,2.571-3.393,6.282-4.687.464-.163.936-.309,1.408-.448a43.267,43.267,0,0,0,1.994,5.175,44.477,44.477,0,0,0-2.018,5.248ZM18.9,33.707a14.893,14.893,0,0,1-4.589,2.872,3.6,3.6,0,0,1-2.872.106c-1.294-.749-1.831-3.621-1.1-7.486.09-.456.187-.911.3-1.359a40.706,40.706,0,0,0,5.525.8,42.939,42.939,0,0,0,3.515,4.345C19.422,33.235,19.162,33.479,18.9,33.707ZM20.9,31.729c-.83-.9-1.66-1.888-2.465-2.954.781.033,1.587.049,2.4.049.838,0,1.66-.016,2.474-.057A35.09,35.09,0,0,1,20.9,31.729ZM31.53,34.17a3.616,3.616,0,0,1-1.343,2.547c-1.294.749-4.052-.228-7.03-2.783-.342-.293-.683-.61-1.033-.936a40.251,40.251,0,0,0,3.434-4.361,40.111,40.111,0,0,0,5.549-.854c.081.334.155.667.22.993A14.833,14.833,0,0,1,31.53,34.17Zm1.481-8.747c-.228.073-.456.146-.692.212a41.335,41.335,0,0,0-2.075-5.191,41.128,41.128,0,0,0,1.994-5.118c.423.122.83.252,1.221.382,3.792,1.3,6.452,3.238,6.452,4.719,0,1.595-2.84,3.653-6.9,5ZM20.83,24.2A3.727,3.727,0,1,0,17.1,20.476,3.726,3.726,0,0,0,20.83,24.2Z" transform="translate(5.489 4.02)"/>
</svg>
