<svg xmlns="http://www.w3.org/2000/svg" width="47.519" height="47.519" viewBox="0 0 47.519 47.519">
  <path id="Icon_simple-sass" data-name="Icon simple-sass" d="M23.759,0A23.759,23.759,0,1,1,0,23.759,23.76,23.76,0,0,1,23.759,0ZM19.037,31.675a6.072,6.072,0,0,1-.048,3.548l-.129.356c-.048.121-.1.238-.154.348a6.661,6.661,0,0,1-1.1,1.6c-1.382,1.5-3.31,2.073-4.138,1.594-.891-.519-.447-2.643,1.156-4.336a16.164,16.164,0,0,1,4.2-2.988V31.8l.214-.121Zm19.623-21.5c-1.073-4.223-8.072-5.611-14.7-3.257a33.285,33.285,0,0,0-11.272,6.468C9.044,16.79,8.464,19.76,8.7,21c.845,4.378,6.845,7.241,9.312,9.365v.012c-.727.356-6.051,3.027-7.3,5.791-1.336,2.911.208,4.991,1.218,5.257a7.507,7.507,0,0,0,8.048-3.265,8.212,8.212,0,0,0,.8-7.278,9.238,9.238,0,0,1,3.623-.206c4.16.475,4.991,3.089,4.811,4.158A2.855,2.855,0,0,1,27.883,36.7c-.3.18-.386.238-.358.358.03.178.18.178.416.148A3.294,3.294,0,0,0,30.2,34.3c.089-2.554-2.348-5.4-6.682-5.346a10.708,10.708,0,0,0-3.712.507.717.717,0,0,0-.208-.208c-2.673-2.881-7.633-4.9-7.425-8.732.059-1.4.564-5.077,9.5-9.531,7.336-3.655,13.188-2.643,14.2-.416,1.451,3.176-3.12,9.088-10.753,9.947-2.911.327-4.425-.8-4.813-1.218-.414-.445-.473-.475-.622-.384-.238.119-.089.5,0,.742a4.572,4.572,0,0,0,2.764,2.168,14.6,14.6,0,0,0,8.91-.891c4.6-1.78,8.195-6.742,7.156-10.9l.145.133Z" fill="#fff"/>
</svg>
