<svg xmlns="http://www.w3.org/2000/svg" width="50.839" height="46.077" viewBox="0 0 50.839 46.077">
  <path id="Icon_awesome-sketch" data-name="Icon awesome-sketch" d="M2.536,15.641.633,18.2H9.941L10.65,4.76ZM40.467,3.659,27.24,2.25,41.2,17.39l-.73-13.731ZM11.247,21.411,10.1,19.148H.725L23.856,46.064Zm.206-3.209H40.662L32.28,9.1,26.068,2.353Zm30.577.936L28.258,46.064,51.379,19.148H42.03Zm.4-13.083-.967-1.3.093,1.779L42.184,18.2h9.287Zm-31.05,2.52-.473,8.8L24.875,2.25,11.648,3.659Zm29.59,10.563H11.144L15.5,27.664,26.068,48.327l14.9-29.189Z" transform="translate(-0.633 -2.25)" fill="#fff"/>
</svg>
