<svg id="Layer_1" data-name="Layer 1" xmlns="http://www.w3.org/2000/svg" viewBox="0 0 114.99 114.99"><rect width="114.99" height="114.99"/><path d="M101.06,285.16c1-2.11,1.85-4.14,2.79-6.16l7.39-15.84a1.34,1.34,0,0,1,1.35-.85c2.78,0,5.56,0,8.33,0,.91,0,1,.22.64,1l-9.9,19q-2.25,4.32-4.46,8.66a1.18,1.18,0,0,0,0,.94q4.26,8.34,8.55,16.66,3.33,6.45,6.64,12.92c.49,1,.36,1.16-.74,1.16-2.94,0-5.88,0-8.81,0a1.7,1.7,0,0,1-1.75-1.15q-5.25-11.1-10.56-22.17a1.93,1.93,0,0,0-.26-.31l-2.34,5.12Q95,310.57,92.08,317c-.71,1.53-1.46,3-2.17,4.57a1.71,1.71,0,0,1-1.78,1.13c-2.74,0-5.49,0-8.23,0-1.1,0-1.19-.16-.68-1.15l12.35-23.74c.81-1.55,1.65-3.09,2.4-4.67a1.7,1.7,0,0,0,0-1.31Q87.59,279,81.13,266.35c-.49-1-1-1.93-1.46-2.91s-.26-1.11.66-1.11h9.1a1.17,1.17,0,0,1,1.22.81c3.3,7.07,6.64,14.12,10,21.18C100.73,284.57,100.87,284.81,101.06,285.16Z" transform="translate(-62.6 -235.27)" fill="#fff"/><path d="M150.93,277.21v-1.55c0-4.05,0-8.1,0-12.15,0-.89.29-1.18,1.17-1.16,2.55,0,5.1,0,7.65,0,1.33,0,1.33,0,1.33,1.3q0,25,0,50.07c0,1.72.08,3.44.2,5.16a1.08,1.08,0,0,1-.71,1.26c-7,3-14.22,4.22-21.69,1.78a16.68,16.68,0,0,1-10.56-9.46,27.63,27.63,0,0,1-.19-22.66c2.93-6.8,8.25-10.79,15.5-12.08A65,65,0,0,1,150.93,277.21Zm-.07,22.87c0-4.34,0-8.68,0-13,0-.78-.29-1-1-1.17a11.12,11.12,0,0,0-13.15,8.45,23.79,23.79,0,0,0,0,11.91c1.73,6.78,7.32,9.14,13.18,7.87a1,1,0,0,0,1-1.22C150.84,308.63,150.86,304.35,150.86,300.08Z" transform="translate(-62.6 -235.27)" fill="#fff"/></svg>