<svg xmlns="http://www.w3.org/2000/svg" width="47.258" height="46.077" viewBox="0 0 47.258 46.077">
  <path id="Icon_simple-adobexd" data-name="Icon simple-adobexd" d="M38.89.45H8.369A8.362,8.362,0,0,0,0,8.819v29.34a8.362,8.362,0,0,0,8.369,8.369H38.89a8.362,8.362,0,0,0,8.369-8.369V8.819A8.362,8.362,0,0,0,38.89.45Zm6.38,36.94a7.134,7.134,0,0,1-7.128,7.168H9.117A7.16,7.16,0,0,1,1.969,37.41V9.567A7.16,7.16,0,0,1,9.117,2.419h29A7.148,7.148,0,0,1,45.27,9.567ZM18.687,22.012,24.2,32.605c.1.158.039.315-.118.315H20.656a.386.386,0,0,1-.414-.256c-1.26-2.6-2.54-5.2-3.859-7.995h-.039c-1.181,2.639-2.481,5.415-3.741,8.014a.378.378,0,0,1-.354.217H9c-.2,0-.217-.158-.118-.276l5.4-10.279L9.058,11.95a.159.159,0,0,1,.118-.276h3.387a.31.31,0,0,1,.354.217c1.241,2.6,2.5,5.277,3.682,7.9h.039c1.142-2.6,2.4-5.3,3.623-7.876.1-.158.158-.256.354-.256h3.17c.158,0,.217.118.118.276Zm6.478,3.21c0-4.588,3.052-8.172,7.9-8.172a8.732,8.732,0,0,1,1.024.039V11.871a.2.2,0,0,1,.2-.2h3.111c.158,0,.2.059.2.158V29.908a14.026,14.026,0,0,0,.1,1.93c0,.118-.039.158-.158.217A11.729,11.729,0,0,1,32.49,33.2C28.217,33.216,25.165,30.577,25.165,25.221Zm8.92-5.041a2.978,2.978,0,0,0-1.142-.2c-2.481,0-4.214,1.91-4.214,5.08,0,3.623,1.772,5.08,4,5.08a3.715,3.715,0,0,0,1.359-.217V20.18Z" transform="translate(0 -0.45)" fill="#fff"/>
</svg>
