<svg id="Layer_1" data-name="Layer 1" xmlns="http://www.w3.org/2000/svg" viewBox="0 0 236.84 143.92"><path d="M269.64,268.54h26.22L295,412.46l-19.78-.06.83-58.8-53.45-.82-28,29.84-24.12-.15Zm6.74,67.65,1.22-51.91-43.07,51Z" transform="translate(-170.47 -268.54)" fill="#1d1d1b"/><path d="M305.78,268.77h56.57q23.13,0,32.9,15A37,37,0,0,1,401,304.32q0,13.57-7,22.27A34.72,34.72,0,0,1,383.44,335q10.06,4.2,15.05,9.48,8.82,9.38,8.82,25.88a42.29,42.29,0,0,1-8,25.09q-11.91,16.8-37.9,16.8H305.78Zm50,60.65q11.32,0,17.63-3.42,9.9-5.37,9.9-19.34t-10.53-18.94Q366.79,285,355.1,285h-32v44.44Zm6,66.21q16.44,0,23.46-10.35a27.65,27.65,0,0,0,4.41-15.82q0-15.63-12.86-21.29-6.84-3-18.07-3H323.15v50.49Z" transform="translate(-170.47 -268.54)" fill="#1d1d1b"/></svg>