<svg id="Layer_1" data-name="Layer 1" xmlns="http://www.w3.org/2000/svg" viewBox="0 0 955.23 173.54">
    <path d="M658.11,103.89c-6.12,21.22-12.11,40.92-28.87,55a28.07,28.07,0,0,1-3.8,2.51c-4,2.36-7.29,2.09-9.74-2.34-1.73-3.12-4.06-6.07-8-3.8-3.65,2.1-3.92,5.73-2.2,9.35.92,1.93,1.91,4.12,3.5,5.41,7.31,5.91,23,4.18,29.28-2.93,14.67-16.59,23.4-36.22,29.39-57.27,2.22-7.8,4.51-15.57,6.71-23.38.89-3.19,1.55-6.63-2.05-8.53s-5.6.83-7.69,3.14c-4.09,4.51-8.07,9.13-12.39,13.4-9.42,9.32-21,13.29-34.09,12.85-7-.23-12.72-3.18-15.93-9.86s-2.63-13.3,2.1-19c12.26-14.86,28.18-22.94,47.35-24.07,3.09-.18,6.34,1.91,9.45,3.11,4.5,1.72,6.82-.06,6.19-4.86-.91-6.95-4.46-10.29-11.46-10.3-26.93,0-47.45,12.6-62.4,34-12,17.22-.06,39.19,21.37,40.12C629.91,117,644.41,114.18,658.11,103.89Z"/>
    <path d="M309,78.81c2.2-7.17,4-14.49,6.69-21.48,4.7-12.3,9.5-24.54,17.72-35.19,2.63-3.42,3.46-8.3,4.88-12.59,1.08-3.26.26-6.35-3-7.74s-5.95.44-7.36,3.55c-4.56,10-9.63,19.82-13.33,30.14-7.18,20-13.56,40.3-20.27,60.47a5.62,5.62,0,0,0-.39,1.47c-.12,3.43-1.63,7.66,2.9,9.21,4.34,1.48,4.66-3.18,6.74-5.32,7.84-8.09,15.56-16.38,24.1-23.69,6-5.1,13-9,19.91-12.89,4.11-2.3,5.88-1,4.92,3.69-1.15,5.58-3.52,10.89-5.09,16.4-2.3,8.1-5,16.16-6.23,24.43-.59,3.93,1.4,8.51,3.15,12.36.59,1.3,4.05,1.59,6.22,1.66.53,0,1.88-2.9,1.58-4.15-2.86-11.54,2.73-21.38,6-31.7,1.77-5.62,3.64-11.21,5.16-16.9,1.46-5.45,1.61-11-3.17-15s-10.6-3-15.24-.15c-10.76,6.59-21.07,13.91-31.53,21a30.34,30.34,0,0,0-3.29,2.94Z"/>
    <path d="M705.5,78.4C710,66.27,714.13,54,719.16,42.06c2.73-6.47,7.24-12.17,10.48-18.45A63.86,63.86,0,0,0,735.3,9.15c.5-2.14-1-6-2.82-7.16-2.94-1.95-5.88.09-7.32,3.24-4.56,10-9.65,19.84-13.36,30.15-7.19,20-13.58,40.33-20.3,60.53a5.49,5.49,0,0,0-.38,1.47c-.12,3.43-1.67,7.66,2.84,9.25,4.35,1.54,4.67-3.13,6.74-5.27,7.85-8.1,15.58-16.4,24.13-23.72,6-5.1,13-9,19.92-12.9,4.1-2.3,5.91-.94,4.93,3.7-1.17,5.59-3.54,10.91-5.11,16.43-2.3,8.1-5,16.17-6.24,24.44-.58,3.93,1.43,8.51,3.2,12.36.59,1.29,4.07,1.54,6.24,1.59.51,0,1.81-2.91,1.5-4.19-2.8-11.55,2.76-21.4,6.06-31.73,1.95-6.1,4.2-12.16,5.48-18.41,2.45-11.9-5.21-18.58-16.6-14.4-12.88,4.72-23.71,12.86-33.84,22l-3,2.66Z"/>
    <path d="M382.71,92.66c12.6-1.78,24.24-2.65,35.45-5.33,6.49-1.55,12.76-5.37,18.29-9.33,7.54-5.38,9.54-12.66,6.8-20.47-2.81-8-9.76-10.56-17.16-11.32C395.25,43,374.21,67.28,371,91.55c-2,15.4,7.11,30.65,21.32,36,1,.36,2,1,2.87.89,2.35-.31,4.66-1,7-1.49-1.24-2-2.05-4.57-3.79-5.89-7.45-5.6-14.2-11.6-15.64-21.46A43.16,43.16,0,0,1,382.71,92.66Zm3.66-10.73C391.1,65.49,409,53.79,424,56.77c2.88.56,6.51,2.87,7.64,5.36,1.78,3.9-.45,7.78-3.71,10.74-7.77,7.07-17.41,8.49-27.29,9C396,82.14,391.39,81.93,386.37,81.93Z"/>
    <path d="M257.44,57.74c-3,11.46-6.66,22.58-8.62,34-3.08,17.94,2,30.77,20.54,36.27a8.8,8.8,0,0,0,1.94.54c3.35.17,7.51,1,8.65-3.15s-2.93-5-5.87-6.08c-16.4-6.33-16.12-12.81-14-26.56,1.7-11.09,6-21.76,9-32.66.82-3,2.43-3.86,5.45-3.81a107.52,107.52,0,0,0,15.65-.73c1.55-.21,2.82-2.48,4.22-3.81-1.55-1.47-3-4-4.69-4.22-4.76-.59-9.64-.2-15.32-.2,5.65-13,10.9-25,16.15-37.07a7.66,7.66,0,0,0,.4-.93c.85-2.84,4-5.82-.19-8.43-3.4-2.13-8.68-.35-10.61,4q-8.25,18.51-15.92,37.28c-1.33,3.26-2.51,5.18-6.61,5.31-2.09.07-5.2,2.79-5.9,4.95C250.11,57.33,254.23,57.65,257.44,57.74Z"/>
    <path d="M167.7,47.28c5.82-13.35,11.25-25.7,16.55-38.1,1.17-2.73,3.91-5.86-.33-8.35-3.33-2-8.47-.32-10.29,3.76C168,17.24,162.57,30,157.29,42.79c-1.22,2.94-2.34,5.08-6,4.47-1-.17-2.77.12-3.26.83-1.35,2-3.18,4.38-2.94,6.39.19,1.55,3.24,2.75,5.61,4.55-2.24,7.87-5,16.82-7.31,25.88-2.13,8.25-3,16.62-.71,25,2.7,10.09,14.28,19.11,24.61,18.6,2.12-.11,4.14-2.1,6.2-3.22-1.41-1.83-2.47-4.72-4.29-5.32-16.88-5.6-18.7-13-15.2-29.82C156.1,80,159.67,70.09,162.4,60c.84-3.11,2.61-3.73,5.53-3.68,5,.07,10.12-.17,15.17-.52,2.4-.17,5.4-1,4.34-4.1a7.58,7.58,0,0,0-5.1-4.21C177.87,46.86,173.25,47.28,167.7,47.28Z"/>
    <path d="M779.47,57.9c-2.89,11.3-6.31,22.14-8.27,33.23a53.18,53.18,0,0,0,.61,19.51c2,9.47,14.29,18.29,24,17.9,2.23-.09,4.38-2.23,6.56-3.42-1.51-1.79-3-3.59-4.56-5.35-.19-.21-.64-.18-1-.29-17.41-6.28-16.66-13.34-14.68-26.57,1.66-11.09,6-21.76,9-32.67.88-3.25,2.7-4,5.86-4a99.52,99.52,0,0,0,15.15-.69c1.59-.21,2.91-2.41,4.36-3.7-1.68-1.54-3.21-4.13-5.07-4.39-4.59-.64-9.34-.21-14.88-.21,4.43-10.21,8.5-19.62,12.59-29,1.55-3.56,3.36-7,4.65-10.69.61-1.72,1.08-4.58.17-5.48C812.67.82,809.7-.06,808.11.57c-2.4.93-5.13,2.91-6.16,5.16-5.54,12.14-10.73,24.44-15.74,36.81-1.29,3.19-2.54,4.79-6.35,4.92-2.07.07-4.81,2.35-5.92,4.37C772.09,55.2,774.14,57.14,779.47,57.9Z"/>
    <path d="M857.79,35.15A39.05,39.05,0,0,0,833,43.91c-7.31,5.71-7.86,14.72-1.12,21.13,3.62,3.45,8,6.1,12.15,9,1.93,1.35,4.12,2.34,6.12,3.6,10.38,6.55,11.24,13.21,2.64,22.12-8.08,8.36-18.69,11.86-29.52,14.72-2.92.78-6.14.55-8.92,1.59-2,.77-3.55,2.88-5.3,4.39,1.42,1.57,2.6,4,4.32,4.51a20.48,20.48,0,0,0,9.4.39c16.16-3.45,30.84-9.77,42-22.71,9.93-11.55,8.53-22.9-4.19-31.14-5.81-3.77-11.94-7-17.61-11-5.5-3.84-4.73-8.26,1.57-10.7,8-3.07,15.81-4.77,23.69.69,1.28.89,4.69.52,5.77-.59a7.45,7.45,0,0,0,1.66-6.22c-1.94-6.27-7.74-7.38-13.24-8.48A23.12,23.12,0,0,0,857.79,35.15Z"/>
    <path d="M77.64,67.42c-3.6,12.89-7.15,24.33-9.89,36-1.5,6.37-1.86,13-2.2,19.61-.1,1.79,1.76,3.68,2.73,5.52,1.75-1.1,4.18-1.81,5.09-3.4,1.65-2.86,3.16-6.18,3.37-9.41,1.78-27,10.66-51.86,21.64-76.15,4.38-9.72,9.13-19.27,13.7-28.9.58-1.23,1.45-2.46,1.53-3.73a39.65,39.65,0,0,0-.49-6.12c-2.13.54-4.85.46-6.27,1.77a22.06,22.06,0,0,0-4.94,7.52Q92,33.46,82.52,57c-1.32,3.32-3.14,4-6.56,4.6-14.59,2.66-29,6-43.54,9.22a60.06,60.06,0,0,0-9.19,2.78c-4,1.57-5.27,4.89-3.74,8.55,1.66,4,4.3,4.78,8.15,3,8.75-4,17.39-8.34,26.41-11.62C61.4,70.88,69.23,69.54,77.64,67.42Z"/>
    <path d="M520.79,123.76c4.71-.11,7.24-3.74,4.24-6.83-4.7-4.84-3.56-9.9-2.11-15.08C529.57,78,539,55.25,549.81,33a25.79,25.79,0,0,1,4-5.8,29.2,29.2,0,0,0,7.62-17.86c.16-2.5-1.46-6.25-3.47-7.47-3.06-1.87-5.71.7-7,3.8C542.47,25.77,533.4,45.62,525.76,66c-5.66,15.11-9.63,30.89-13.95,46.48A8.93,8.93,0,0,0,520.79,123.76Z"/>
    <path d="M11.7,117c.81-.43,3.76-1.08,4.47-2.71s-.93-4.15-1.56-6.29c-.76-2.61-2.39-5.29-2.18-7.82,2.09-25.43,9.13-49.37,22.28-71.37,1.65-2.76,3.13-5.62,4.59-8.48,1.72-3.39,3.78-7.91,0-10-3.95-2.22-6.18,2.5-7.57,5.52-7.61,16.57-15.84,32.94-22.06,50C5.09,78.39,3.08,91.93.32,105.12-1.21,112.48,2.75,116.85,11.7,117Z"/>
    <path d="M955.23,6.41C954,5.09,952.69,2.47,950.79,2c-1.53-.41-4.6,1.22-5.53,2.81-5.65,9.62-11,19.46-16.26,29.3-8,14.89-16,29.79-23.76,44.8-1.53,2.94-4.48,7.27-.22,9.37,4.43,2.19,5.41-3.06,7.13-5.92,6.42-10.72,12.87-21.43,19.18-32.22,7.59-13,15-26.07,22.52-39.14C954.42,10,954.55,8.71,955.23,6.41Z"/>
    <path d="M555.08,106.09c0,5.26,4.14,9.68,9.18,9.25,1.75-.15,4.19-1.3,4.83-2.68a5.61,5.61,0,0,0-1.27-5.24c-3.09-2.49-3.31-5.55-2.38-8.65,1.49-5,3.42-9.85,5.39-14.67,2.86-7,5.94-13.95,8.88-20.94,1.5-3.55-.48-6-3.48-6.47-2.16-.36-6.26.71-6.74,2.1C564.11,74.37,555.79,89.08,555.08,106.09Z"/>
    <path d="M104,105.74c.14,6.07,5.11,10.51,10.41,9.68,3.84-.59,6.12-4.66,3.43-6.92-6.3-5.3-3.54-11.17-1.48-16.58,2.89-7.55,6.84-14.7,10.21-22.07.91-2,1.21-4.23,2.06-6.24,1.59-3.75-.16-5.86-3.39-7.12-3.39-1.32-6.3-.24-7.37,3.2-4.61,14.79-12.46,28.59-13.65,44.44C104.19,104.8,104.06,105.47,104,105.74Z"/>
    <path d="M590.7,24.68c-2.18,2.72-4.6,5.3-6.5,8.22s-1.89,6.33.79,8.76c1,.87,4.22,1,4.82.16a58.64,58.64,0,0,0,6.57-10.77C597.77,28.07,595.41,25.55,590.7,24.68Z"/>
    <path d="M139.73,24.7c-2.18,2.73-4.58,5.32-6.49,8.24s-1.84,6.35.85,8.76c1,.86,4.22.9,4.83.1A57,57,0,0,0,145.44,31C146.8,28.05,144.38,25.52,139.73,24.7Z"/>
    <path d="M895.33,106.25c-3.85.3-5.19,4.15-7,7.48-1.77,3.16-1.65,6.32,1,8.68.9.81,4.12.7,4.78-.16A52.61,52.61,0,0,0,900.21,112C901.67,108.73,899.74,106.35,895.33,106.25Z"/>
</svg>