<svg xmlns="http://www.w3.org/2000/svg" width="108" height="108" viewBox="0 0 108 108">
  <g id="Group_72" data-name="Group 72" transform="translate(-866 -3134.915)">
    <g id="Ellipse_2" data-name="Ellipse 2" transform="translate(866 3134.915)" fill="#0c0c0c" stroke="#fff" stroke-width="4">
      <circle cx="54" cy="54" r="54" stroke="none"/>
      <circle cx="54" cy="54" r="52" fill="none"/>
    </g>
    <path id="Icon_awesome-pencil-ruler" data-name="Icon awesome-pencil-ruler" d="M10.4,23.176,23.176,10.4l-4.19-4.19-5.858,5.858a.752.752,0,0,1-1.065,0L11,11a.752.752,0,0,1,0-1.065l5.858-5.858L13.662.882a3.012,3.012,0,0,0-4.26,0L.882,9.4a3.013,3.013,0,0,0,0,4.26L10.4,23.176ZM47.287,12.084a4.562,4.562,0,0,0,0-6.451l-4.3-4.3a4.564,4.564,0,0,0-6.453,0L32.166,5.7l10.75,10.75ZM30.017,7.855l-28.2,28.2L.031,46.259a2.016,2.016,0,0,0,2.335,2.332L12.57,46.8l28.2-28.2ZM47.741,34.961l-3.195-3.195-5.858,5.858a.752.752,0,0,1-1.065,0l-1.065-1.065a.754.754,0,0,1,0-1.065l5.858-5.858-4.192-4.192L25.444,38.224l9.517,9.516a3.012,3.012,0,0,0,4.26,0l8.519-8.518a3.012,3.012,0,0,0,0-4.26Z" transform="translate(895.688 3164.604)" fill="#fff"/>
  </g>
</svg>
