<svg xmlns="http://www.w3.org/2000/svg" width="108" height="108" viewBox="0 0 108 108">
  <g id="Group_70" data-name="Group 70" transform="translate(-385 -3174)">
    <g id="Ellipse_1" data-name="Ellipse 1" transform="translate(385 3174)" fill="#0c0c0c" stroke="#fff" stroke-width="4">
      <circle cx="54" cy="54" r="54" stroke="none"/>
      <circle cx="54" cy="54" r="52" fill="none"/>
    </g>
    <g id="Group_59" data-name="Group 59" transform="translate(405.573 3202.318)">
      <path id="Icon_material-computer" data-name="Icon material-computer" d="M58.509,46.956a5.843,5.843,0,0,0,5.822-5.851l.029-29.255A5.868,5.868,0,0,0,58.509,6H11.7a5.868,5.868,0,0,0-5.851,5.851V41.106A5.868,5.868,0,0,0,11.7,46.956H0v5.851H70.211V46.956ZM11.7,11.851H58.509V41.106H11.7Z" transform="translate(0 -6)" fill="#fff"/>
      <g id="Icon_feather-code" data-name="Icon feather-code" transform="translate(22.418 14.59)">
        <path id="Path_34" data-name="Path 34" d="M24,20.418l5.709-5.709L24,9" transform="translate(-3.464 -9)" stroke="#fff" stroke-linecap="round" stroke-linejoin="round" stroke-width="5"/>
        <path id="Path_35" data-name="Path 35" d="M8.709,9,3,14.709l5.709,5.709" transform="translate(-3 -9)" stroke="#fff" stroke-linecap="round" stroke-linejoin="round" stroke-width="5"/>
      </g>
      <line id="Line_26" data-name="Line 26" x1="3.806" y2="19.665" transform="translate(33.837 10.332)" fill="none" stroke="#fff" stroke-linecap="round" stroke-width="4"/>
    </g>
  </g>
</svg>
